<?xml version="1.0" encoding="utf-8"?>
<!-- Generator: Adobe Illustrator 19.1.0, SVG Export Plug-In . SVG Version: 6.00 Build 0)  -->
<svg version="1.1" id="Layer_1" xmlns="http://www.w3.org/2000/svg" xmlns:xlink="http://www.w3.org/1999/xlink" xml:space="preserve">
<g>
	<g>
		<polygon points="63.6,33.3 32.2,46.9 32.2,37.4 55.3,28.5 32.2,19.6 32.2,10.4 63.6,24.2 63.6,33.3 		"/>
	</g>
	<g>
		<polygon points="84.2,0 84.2,57.3 75.1,57.3 75.1,0 84.2,0"/>
	</g>
	<g>
		<path d="M109.3,28.6c0,9,2.1,12.7,7,12.7c4.8,0,6.9-3.7,6.9-12.7c0-9-2.1-12.6-6.9-12.6C111.4,16,109.3,19.6,109.3,28.6
			L109.3,28.6z M133.2,28.6c0,12.9-6.1,20-16.9,20c-10.9,0-17-7.1-17-20c0-12.8,6.1-20,17-20C127.1,8.7,133.2,15.8,133.2,28.6
			L133.2,28.6z"/>
	</g>
</g>
</svg>
